<svg width="117" height="20" viewBox="0 0 117 20" fill="none" xmlns="http://www.w3.org/2000/svg">
<path opacity="0.8" d="M7.568 2.008C8.016 2.008 8.464 2.024 8.912 2.056C9.36 2.072 9.8 2.128 10.232 2.224C10.664 2.32 11.08 2.464 11.48 2.656C11.896 2.832 12.28 3.08 12.632 3.4C13.192 3.912 13.592 4.528 13.832 5.248C14.072 5.952 14.184 6.672 14.168 7.408C14.152 8.4 13.976 9.24 13.64 9.928C13.32 10.616 12.88 11.2 12.32 11.68C11.808 12.096 11.216 12.392 10.544 12.568L14.312 19H10.424L6.992 12.904H4.28V19H0.8V2.008H7.568ZM7.592 9.976C8.024 9.976 8.432 9.936 8.816 9.856C9.2 9.776 9.528 9.648 9.8 9.472C10.088 9.28 10.312 9.032 10.472 8.728C10.648 8.408 10.744 8.008 10.76 7.528C10.776 7.016 10.704 6.6 10.544 6.28C10.384 5.96 10.16 5.712 9.872 5.536C9.6 5.36 9.272 5.248 8.888 5.2C8.52 5.136 8.112 5.104 7.664 5.104H4.28V9.976H7.592ZM24.4571 13.408C24.0571 13.408 23.6491 13.408 23.2331 13.408C22.8171 13.408 22.4011 13.408 21.9851 13.408C21.7451 13.408 21.4731 13.432 21.1691 13.48C20.8651 13.528 20.6011 13.616 20.3771 13.744C20.1531 13.872 19.9611 14.04 19.8011 14.248C19.6571 14.456 19.5851 14.712 19.5851 15.016C19.5851 15.272 19.6331 15.496 19.7291 15.688C19.8411 15.88 19.9771 16.04 20.1371 16.168C20.3131 16.296 20.5211 16.4 20.7611 16.48C21.0011 16.544 21.2411 16.576 21.4811 16.576C21.9451 16.592 22.3771 16.512 22.7771 16.336C23.1931 16.16 23.5531 15.912 23.8571 15.592C24.0491 15.336 24.1931 15.048 24.2891 14.728C24.4011 14.392 24.4571 13.952 24.4571 13.408ZM24.5771 17.44C24.0971 18.08 23.5131 18.536 22.8251 18.808C22.1371 19.08 21.3371 19.208 20.4251 19.192C19.2571 19.16 18.2811 18.832 17.4971 18.208C17.0811 17.856 16.7531 17.44 16.5131 16.96C16.2891 16.464 16.1771 15.88 16.1771 15.208C16.1931 14.52 16.3451 13.912 16.6331 13.384C16.9371 12.84 17.3931 12.392 18.0011 12.04C18.5131 11.768 19.0891 11.576 19.7291 11.464C20.3851 11.352 21.0971 11.296 21.8651 11.296H24.4571C24.5051 10.512 24.3211 9.928 23.9051 9.544C23.5051 9.144 22.9371 8.936 22.2011 8.92C21.9611 8.92 21.7131 8.936 21.4571 8.968C21.2011 9 20.9611 9.064 20.7371 9.16C20.5291 9.256 20.3451 9.392 20.1851 9.568C20.0411 9.728 19.9451 9.928 19.8971 10.168H16.4171C16.4971 9.4 16.7051 8.76 17.0411 8.248C17.3931 7.72 17.8331 7.296 18.3611 6.976C18.8891 6.656 19.4731 6.432 20.1131 6.304C20.7691 6.16 21.4411 6.088 22.1291 6.088C22.5131 6.088 22.9051 6.112 23.3051 6.16C23.7051 6.192 24.0971 6.272 24.4811 6.4C24.8651 6.512 25.2251 6.672 25.5611 6.88C25.9131 7.072 26.2411 7.328 26.5451 7.648C27.0891 8.272 27.4251 8.992 27.5531 9.808C27.6971 10.608 27.7611 11.392 27.7451 12.16V19H24.6491L24.5771 17.44ZM35.0469 8.8C34.8069 8.8 34.5749 8.816 34.3509 8.848C34.1429 8.88 33.9509 8.936 33.7749 9.016C33.5989 9.08 33.4549 9.192 33.3429 9.352C33.2309 9.496 33.1829 9.688 33.1989 9.928C33.2149 10.2 33.3189 10.416 33.5109 10.576C33.7189 10.736 34.0069 10.864 34.3749 10.96C34.7269 11.056 35.1189 11.152 35.5509 11.248C35.9829 11.328 36.4069 11.416 36.8229 11.512C37.2389 11.608 37.6469 11.72 38.0469 11.848C38.4469 11.976 38.7989 12.136 39.1029 12.328C39.5189 12.584 39.8629 12.944 40.1349 13.408C40.4069 13.872 40.5349 14.44 40.5189 15.112C40.5189 15.768 40.4069 16.336 40.1829 16.816C39.9749 17.28 39.6869 17.68 39.3189 18.016C38.8549 18.432 38.2709 18.736 37.5669 18.928C36.8629 19.104 36.1509 19.192 35.4309 19.192C34.5989 19.192 33.8309 19.104 33.1269 18.928C32.4389 18.752 31.8069 18.44 31.2309 17.992C30.8149 17.656 30.4629 17.248 30.1749 16.768C29.9029 16.272 29.7429 15.68 29.6949 14.992H33.1029C33.1989 15.536 33.4629 15.912 33.8949 16.12C34.3429 16.328 34.8709 16.432 35.4789 16.432C35.6549 16.432 35.8389 16.424 36.0309 16.408C36.2389 16.376 36.4229 16.328 36.5829 16.264C36.7589 16.184 36.9029 16.072 37.0149 15.928C37.1429 15.768 37.2069 15.6 37.2069 15.424C37.2229 15.008 37.0789 14.712 36.7749 14.536C36.4869 14.36 36.1749 14.24 35.8389 14.176C35.5029 14.096 35.1429 14.016 34.7589 13.936C34.3749 13.856 33.9909 13.776 33.6069 13.696C33.2389 13.616 32.8709 13.52 32.5029 13.408C32.1349 13.28 31.7989 13.112 31.4949 12.904C31.0309 12.616 30.6389 12.232 30.3189 11.752C30.0149 11.272 29.8869 10.64 29.9349 9.856C29.9669 9.168 30.1349 8.584 30.4389 8.104C30.7589 7.608 31.1509 7.216 31.6149 6.928C32.0949 6.624 32.6309 6.408 33.2229 6.28C33.8309 6.152 34.4469 6.088 35.0709 6.088C35.7589 6.088 36.4069 6.16 37.0149 6.304C37.6229 6.448 38.1509 6.68 38.5989 7C39.0629 7.32 39.4309 7.736 39.7029 8.248C39.9909 8.76 40.1509 9.384 40.1829 10.12H36.9189C36.8549 9.592 36.6469 9.24 36.2949 9.064C35.9589 8.888 35.5429 8.8 35.0469 8.8ZM45.9155 7.768C46.1395 7.496 46.3715 7.272 46.6115 7.096C46.8515 6.904 47.1395 6.72 47.4755 6.544C47.8275 6.384 48.1795 6.272 48.5315 6.208C48.8995 6.128 49.2915 6.088 49.7075 6.088C50.5235 6.088 51.2355 6.232 51.8435 6.52C52.4515 6.792 52.9555 7.152 53.3555 7.6C53.8195 8.16 54.1475 8.816 54.3395 9.568C54.5315 10.32 54.6275 11.152 54.6275 12.064V19H51.2195V12.328C51.2195 11.88 51.1715 11.456 51.0755 11.056C50.9955 10.64 50.8515 10.288 50.6435 10C50.4355 9.696 50.1635 9.472 49.8275 9.328C49.5075 9.184 49.1075 9.112 48.6275 9.112C48.1475 9.128 47.7155 9.24 47.3315 9.448C46.9635 9.64 46.6755 9.896 46.4675 10.216C46.2755 10.536 46.1315 10.896 46.0355 11.296C45.9555 11.68 45.9155 12.08 45.9155 12.496V19H42.5315V2.008H45.9155V7.768ZM59.0988 0.472C59.7228 0.472 60.2268 0.656 60.6108 1.024C60.9948 1.392 61.1868 1.88 61.1868 2.488C61.1868 3.128 60.9948 3.632 60.6108 4C60.2268 4.352 59.7228 4.528 59.0988 4.528C58.4908 4.528 57.9868 4.352 57.5868 4C57.2028 3.632 57.0108 3.128 57.0108 2.488C57.0108 1.88 57.2028 1.392 57.5868 1.024C57.9868 0.656 58.4908 0.472 59.0988 0.472ZM60.8028 19H57.4188V6.352H60.8028V19ZM72.9601 17.584C72.4481 18.128 71.8721 18.528 71.2321 18.784C70.6081 19.024 69.8481 19.16 68.9521 19.192C68.1201 19.192 67.3521 19.064 66.6481 18.808C65.9441 18.536 65.3361 18.136 64.8241 17.608C64.2161 16.968 63.7841 16.224 63.5281 15.376C63.2881 14.528 63.1681 13.664 63.1681 12.784C63.1681 10.72 63.7441 9.064 64.8961 7.816C65.4081 7.272 66.0481 6.848 66.8161 6.544C67.5841 6.24 68.4561 6.088 69.4321 6.088C70.1681 6.088 70.8241 6.2 71.4001 6.424C71.9921 6.632 72.4961 6.944 72.9121 7.36V2.008H76.2961V19H73.1521L72.9601 17.584ZM69.7441 16.192C70.7681 16.16 71.5441 15.816 72.0721 15.16C72.6161 14.488 72.8881 13.664 72.8881 12.688C72.8881 11.632 72.6161 10.776 72.0721 10.12C71.5281 9.464 70.7361 9.128 69.6961 9.112C69.1681 9.112 68.7041 9.2 68.3041 9.376C67.9201 9.552 67.5921 9.808 67.3201 10.144C67.0641 10.464 66.8721 10.84 66.7441 11.272C66.6161 11.688 66.5521 12.144 66.5521 12.64C66.5521 13.168 66.6161 13.648 66.7441 14.08C66.8721 14.496 67.0641 14.864 67.3201 15.184C67.5921 15.504 67.9281 15.752 68.3281 15.928C68.7441 16.104 69.2161 16.192 69.7441 16.192ZM84.7134 16.432C85.1934 16.432 85.6014 16.36 85.9374 16.216C86.2894 16.056 86.5774 15.8 86.8014 15.448H90.3534C90.1774 16.104 89.9054 16.672 89.5374 17.152C89.1854 17.632 88.7534 18.024 88.2414 18.328C87.7454 18.632 87.1934 18.856 86.5854 19C85.9774 19.128 85.3374 19.192 84.6654 19.192C82.6174 19.192 81.0654 18.616 80.0094 17.464C78.9694 16.312 78.4494 14.696 78.4494 12.616C78.4494 11.672 78.5854 10.8 78.8574 10C79.1454 9.2 79.5454 8.512 80.0574 7.936C80.5694 7.344 81.2014 6.888 81.9534 6.568C82.7214 6.248 83.5934 6.088 84.5694 6.088C85.7054 6.088 86.6894 6.288 87.5214 6.688C88.3534 7.088 89.0094 7.64 89.4894 8.344C89.9854 9.032 90.3134 9.84 90.4734 10.768C90.6494 11.696 90.6494 12.688 90.4734 13.744H81.8334C81.8974 14.496 82.1614 15.136 82.6254 15.664C83.0894 16.176 83.7854 16.432 84.7134 16.432ZM87.3294 11.416C87.3294 11.016 87.2574 10.664 87.1134 10.36C86.9694 10.04 86.7774 9.784 86.5374 9.592C86.2974 9.384 86.0094 9.232 85.6734 9.136C85.3534 9.04 85.0174 8.992 84.6654 8.992C83.8174 9.008 83.1534 9.24 82.6734 9.688C82.2094 10.12 81.9374 10.696 81.8574 11.416H87.3294ZM101.277 6.352H104.997L100.341 19H96.0929L91.4609 6.352H95.2049L98.2529 15.736L101.277 6.352ZM111.008 8.8C110.768 8.8 110.536 8.816 110.312 8.848C110.104 8.88 109.912 8.936 109.736 9.016C109.56 9.08 109.416 9.192 109.304 9.352C109.192 9.496 109.144 9.688 109.16 9.928C109.176 10.2 109.28 10.416 109.472 10.576C109.68 10.736 109.968 10.864 110.336 10.96C110.688 11.056 111.08 11.152 111.512 11.248C111.944 11.328 112.368 11.416 112.784 11.512C113.2 11.608 113.608 11.72 114.008 11.848C114.408 11.976 114.76 12.136 115.064 12.328C115.48 12.584 115.824 12.944 116.096 13.408C116.368 13.872 116.496 14.44 116.48 15.112C116.48 15.768 116.368 16.336 116.144 16.816C115.936 17.28 115.648 17.68 115.28 18.016C114.816 18.432 114.232 18.736 113.528 18.928C112.824 19.104 112.112 19.192 111.392 19.192C110.56 19.192 109.792 19.104 109.088 18.928C108.4 18.752 107.768 18.44 107.192 17.992C106.776 17.656 106.424 17.248 106.136 16.768C105.864 16.272 105.704 15.68 105.656 14.992H109.064C109.16 15.536 109.424 15.912 109.856 16.12C110.304 16.328 110.832 16.432 111.44 16.432C111.616 16.432 111.8 16.424 111.992 16.408C112.2 16.376 112.384 16.328 112.544 16.264C112.72 16.184 112.864 16.072 112.976 15.928C113.104 15.768 113.168 15.6 113.168 15.424C113.184 15.008 113.04 14.712 112.736 14.536C112.448 14.36 112.136 14.24 111.8 14.176C111.464 14.096 111.104 14.016 110.72 13.936C110.336 13.856 109.952 13.776 109.568 13.696C109.2 13.616 108.832 13.52 108.464 13.408C108.096 13.28 107.76 13.112 107.456 12.904C106.992 12.616 106.6 12.232 106.28 11.752C105.976 11.272 105.848 10.64 105.896 9.856C105.928 9.168 106.096 8.584 106.4 8.104C106.72 7.608 107.112 7.216 107.576 6.928C108.056 6.624 108.592 6.408 109.184 6.28C109.792 6.152 110.408 6.088 111.032 6.088C111.72 6.088 112.368 6.16 112.976 6.304C113.584 6.448 114.112 6.68 114.56 7C115.024 7.32 115.392 7.736 115.664 8.248C115.952 8.76 116.112 9.384 116.144 10.12H112.88C112.816 9.592 112.608 9.24 112.256 9.064C111.92 8.888 111.504 8.8 111.008 8.8Z" fill="black"/>
</svg>
